<svg id="visual" viewBox="0 0 900 600" width="900" height="600" xmlns="http://www.w3.org/2000/svg" xmlns:xlink="http://www.w3.org/1999/xlink" version="1.1"><path d="M0 61L82 73L164 73L245 121L327 61L409 97L491 109L573 73L655 103L736 67L818 55L900 109L900 0L818 0L736 0L655 0L573 0L491 0L409 0L327 0L245 0L164 0L82 0L0 0Z" fill="#00cc8e"></path><path d="M0 163L82 163L164 151L245 175L327 109L409 133L491 169L573 163L655 193L736 151L818 91L900 181L900 107L818 53L736 65L655 101L573 71L491 107L409 95L327 59L245 119L164 71L82 71L0 59Z" fill="#00b98a"></path><path d="M0 421L82 325L164 403L245 355L327 289L409 313L491 337L573 367L655 301L736 313L818 259L900 283L900 179L818 89L736 149L655 191L573 161L491 167L409 131L327 107L245 173L164 149L82 161L0 161Z" fill="#00a784"></path><path d="M0 523L82 505L164 523L245 529L327 469L409 457L491 457L573 523L655 481L736 505L818 541L900 457L900 281L818 257L736 311L655 299L573 365L491 335L409 311L327 287L245 353L164 401L82 323L0 419Z" fill="#00957c"></path><path d="M0 601L82 601L164 601L245 601L327 601L409 601L491 601L573 601L655 601L736 601L818 601L900 601L900 455L818 539L736 503L655 479L573 521L491 455L409 455L327 467L245 527L164 521L82 503L0 521Z" fill="#038373"></path></svg>